<svg xmlns="http://www.w3.org/2000/svg" xmlns:xlink="http://www.w3.org/1999/xlink" width="633pt" height="381pt" viewBox="0.00 0.00 633.00 381.00">
<g id="graph0" class="graph" transform="scale(1 1) rotate(0) translate(4 377.2)">
<title>MikesGrill</title>
<polygon fill="white" stroke="none" points="-4,4 -4,-377.2 629,-377.2 629,4 -4,4"/>
<g id="clust1" class="cluster">
<title>cluster_frontend</title>
<polygon fill="none" stroke="lightblue" points="29,-288.4 29,-365.2 617,-365.2 617,-288.4 29,-288.4"/>
<text xml:space="preserve" text-anchor="middle" x="323" y="-348.6" font-family="Times,serif" font-size="14.00">Frontend (React)</text>
</g>
<g id="clust2" class="cluster">
<title>cluster_backend</title>
<polygon fill="none" stroke="lightgreen" points="8,-103.8 8,-253.6 480,-253.6 480,-103.8 8,-103.8"/>
<text xml:space="preserve" text-anchor="middle" x="244" y="-237" font-family="Times,serif" font-size="14.00">Backend (Spring Boot)</text>
</g>
<g id="clust3" class="cluster">
<title>cluster_db</title>
<polygon fill="none" stroke="orange" points="331,-8 331,-84.8 467,-84.8 467,-8 331,-8"/>
<text xml:space="preserve" text-anchor="middle" x="399" y="-68.2" font-family="Times,serif" font-size="14.00">Database (MySQL)</text>
</g>
<!-- Home -->
<g id="node1" class="node">
<title>Home</title>
<polygon fill="lightgray" stroke="lightgray" points="126.97,-332.4 37.03,-332.4 37.03,-296.4 126.97,-296.4 126.97,-332.4"/>
<text xml:space="preserve" text-anchor="middle" x="82" y="-310.2" font-family="Arial" font-size="14.00">Home Page</text>
</g>
<!-- RestaurantController -->
<g id="node6" class="node">
<title>RestaurantController</title>
<polygon fill="lightgray" stroke="lightgray" points="161.59,-220.8 16.41,-220.8 16.41,-184.8 161.59,-184.8 161.59,-220.8"/>
<text xml:space="preserve" text-anchor="middle" x="89" y="-198.6" font-family="Arial" font-size="14.00">RestaurantController</text>
</g>
<!-- Home&#45;&gt;RestaurantController -->
<g id="edge1" class="edge">
<title>Home-&gt;RestaurantController</title>
<path fill="none" stroke="black" d="M82.13,-296.12C82.29,-286.04 82.62,-273.09 83.33,-261.6 83.91,-252.15 84.83,-241.86 85.76,-232.62"/>
<polygon fill="black" stroke="black" points="89.23,-233.04 86.8,-222.73 82.27,-232.31 89.23,-233.04"/>
<text xml:space="preserve" text-anchor="middle" x="158.16" y="-265.8" font-family="Times,serif" font-size="14.00">GET /api/public/restaurant</text>
</g>
<!-- Menu -->
<g id="node2" class="node">
<title>Menu</title>
<polygon fill="lightgray" stroke="lightgray" points="232.8,-332.4 145.2,-332.4 145.2,-296.4 232.8,-296.4 232.8,-332.4"/>
<text xml:space="preserve" text-anchor="middle" x="189" y="-310.2" font-family="Arial" font-size="14.00">Menu Page</text>
</g>
<!-- PublicMenuController -->
<g id="node7" class="node">
<title>PublicMenuController</title>
<polygon fill="lightgray" stroke="lightgray" points="329.92,-220.8 180.08,-220.8 180.08,-184.8 329.92,-184.8 329.92,-220.8"/>
<text xml:space="preserve" text-anchor="middle" x="255" y="-198.6" font-family="Arial" font-size="14.00">PublicMenuController</text>
</g>
<!-- Menu&#45;&gt;PublicMenuController -->
<g id="edge2" class="edge">
<title>Menu-&gt;PublicMenuController</title>
<path fill="none" stroke="black" d="M216.15,-296.07C222.41,-291.01 228.53,-285.04 233,-278.4 242.29,-264.61 247.73,-246.84 250.88,-232.1"/>
<polygon fill="black" stroke="black" points="254.26,-233.02 252.66,-222.55 247.38,-231.73 254.26,-233.02"/>
<text xml:space="preserve" text-anchor="middle" x="304.69" y="-265.8" font-family="Times,serif" font-size="14.00">GET /api/public/menu</text>
</g>
<!-- Contact -->
<g id="node3" class="node">
<title>Contact</title>
<polygon fill="lightgray" stroke="lightgray" points="351.42,-332.4 250.58,-332.4 250.58,-296.4 351.42,-296.4 351.42,-332.4"/>
<text xml:space="preserve" text-anchor="middle" x="301" y="-310.2" font-family="Arial" font-size="14.00">Contact Page</text>
</g>
<!-- AdminLogin -->
<g id="node4" class="node">
<title>AdminLogin</title>
<polygon fill="lightgray" stroke="lightgray" points="462.91,-332.4 369.09,-332.4 369.09,-296.4 462.91,-296.4 462.91,-332.4"/>
<text xml:space="preserve" text-anchor="middle" x="416" y="-310.2" font-family="Arial" font-size="14.00">Admin Login</text>
</g>
<!-- AdminMenu -->
<g id="node5" class="node">
<title>AdminMenu</title>
<polygon fill="lightgray" stroke="lightgray" points="609.03,-332.4 480.97,-332.4 480.97,-296.4 609.03,-296.4 609.03,-332.4"/>
<text xml:space="preserve" text-anchor="middle" x="545" y="-310.2" font-family="Arial" font-size="14.00">Admin Dashboard</text>
</g>
<!-- MenuItemService -->
<g id="node8" class="node">
<title>MenuItemService</title>
<polygon fill="lightgray" stroke="lightgray" points="472.47,-220.8 347.53,-220.8 347.53,-184.8 472.47,-184.8 472.47,-220.8"/>
<text xml:space="preserve" text-anchor="middle" x="410" y="-198.6" font-family="Arial" font-size="14.00">MenuItemService</text>
</g>
<!-- AdminMenu&#45;&gt;MenuItemService -->
<g id="edge3" class="edge">
<title>AdminMenu-&gt;MenuItemService</title>
<path fill="none" stroke="black" d="M523.61,-296.03C501.1,-277.76 465.47,-248.84 440.12,-228.26"/>
<polygon fill="black" stroke="black" points="442.44,-225.62 432.47,-222.04 438.02,-231.06 442.44,-225.62"/>
<text xml:space="preserve" text-anchor="middle" x="551.69" y="-265.8" font-family="Times,serif" font-size="14.00">CRUD operations</text>
</g>
<!-- MenuItemRepository -->
<g id="node9" class="node">
<title>MenuItemRepository</title>
<polygon fill="lightgray" stroke="lightgray" points="471.58,-147.8 326.42,-147.8 326.42,-111.8 471.58,-111.8 471.58,-147.8"/>
<text xml:space="preserve" text-anchor="middle" x="399" y="-125.6" font-family="Arial" font-size="14.00">MenuItemRepository</text>
</g>
<!-- MenuItemService&#45;&gt;MenuItemRepository -->
<g id="edge4" class="edge">
<title>MenuItemService-&gt;MenuItemRepository</title>
<path fill="none" stroke="black" d="M407.34,-184.61C406.15,-176.94 404.72,-167.69 403.38,-159.04"/>
<polygon fill="black" stroke="black" points="406.86,-158.67 401.87,-149.32 399.94,-159.74 406.86,-158.67"/>
</g>
<!-- MenuItemTable -->
<g id="node10" class="node">
<title>MenuItemTable</title>
<polygon fill="lightgray" stroke="lightgray" points="458.75,-52 339.25,-52 339.25,-16 458.75,-16 458.75,-52"/>
<text xml:space="preserve" text-anchor="middle" x="399" y="-29.8" font-family="Arial" font-size="14.00">menu_item table</text>
</g>
<!-- MenuItemRepository&#45;&gt;MenuItemTable -->
<g id="edge5" class="edge">
<title>MenuItemRepository-&gt;MenuItemTable</title>
<path fill="none" stroke="black" d="M399,-111.6C399,-98.19 399,-79.29 399,-63.62"/>
<polygon fill="black" stroke="black" points="402.5,-63.93 399,-53.93 395.5,-63.93 402.5,-63.93"/>
</g>
</g>
</svg>